<?xml version="1.0" encoding="UTF-8"?>
<svg xmlns="http://www.w3.org/2000/svg" viewBox="0 0 200 340" 
     width="200" height="340"
     role="img" aria-label="Hole 2 — Par 5, 502 yards">
  <rect width="200" height="340" fill="#0a1a0a"/>
  <polygon points="82.0,27.2 118.0,27.2 114.0,156.4 86.0,156.4" fill="#1a3320" opacity="0.95"/>
  <polygon points="86.0,136.4 116.0,138.4 140.0,204.00000000000003 118.0,197.20000000000002" fill="#1a3320" opacity="0.95"/>
  <polygon points="92.0,176.8 138.0,173.4 142.0,224.4 96.0,217.6" fill="#1a3320" opacity="0.95"/>
  <ellipse cx="128.0" cy="285.59999999999997" rx="22" ry="16" fill="#1a5c30" transform="rotate(0,128.0,285.59999999999997)"/>
  <line x1="128.0" y1="277.59999999999997" x2="128.0" y2="265.59999999999997" stroke="#e8ecef" stroke-width="1.2"/>
  <polygon points="128.0,265.59999999999997 137.0,270.59999999999997 128.0,275.59999999999997" fill="#22c55e"/>
  <ellipse cx="100.0" cy="280.59999999999997" rx="9" ry="6" fill="#7a6445" opacity="0.85"/>
  <ellipse cx="153.0" cy="290.59999999999997" rx="8" ry="5" fill="#7a6445" opacity="0.85"/>
  <circle cx="100.0" cy="17.0" r="4" fill="#f5b418"/>
  <text x="6" y="326" font-family="'JetBrains Mono',monospace" font-size="8" fill="#374349">502y</text>
  <text x="6" y="335" font-family="'JetBrains Mono',monospace" font-size="8" fill="#374349">P5</text>
</svg>
