<?xml version="1.0" encoding="UTF-8"?>
<svg xmlns="http://www.w3.org/2000/svg" viewBox="0 0 200 340" 
     width="200" height="340"
     role="img" aria-label="Hole 5 — Par 5, 527 yards">
  <rect width="200" height="340" fill="#0a1a0a"/>
  <polygon points="82.0,27.2 118.0,27.2 114.0,156.4 86.0,156.4" fill="#1a3320" opacity="0.95"/>
  <polygon points="86.0,136.4 114.0,136.4 82.0,197.20000000000002 58.0,197.20000000000002" fill="#1a3320" opacity="0.95"/>
  <polygon points="56.0,190.4 110.0,173.4 106.0,217.6 52.0,231.20000000000002" fill="#1a3320" opacity="0.95"/>
  <ellipse cx="68.0" cy="285.59999999999997" rx="22" ry="16" fill="#1a5c30" transform="rotate(0,68.0,285.59999999999997)"/>
  <line x1="68.0" y1="277.59999999999997" x2="68.0" y2="265.59999999999997" stroke="#e8ecef" stroke-width="1.2"/>
  <polygon points="68.0,265.59999999999997 77.0,270.59999999999997 68.0,275.59999999999997" fill="#22c55e"/>
  <ellipse cx="96.0" cy="280.59999999999997" rx="9" ry="6" fill="#7a6445" opacity="0.85"/>
  <ellipse cx="42.0" cy="290.59999999999997" rx="8" ry="5" fill="#7a6445" opacity="0.85"/>
  <circle cx="100.0" cy="17.0" r="4" fill="#f5b418"/>
  <text x="6" y="326" font-family="'JetBrains Mono',monospace" font-size="8" fill="#374349">527y</text>
  <text x="6" y="335" font-family="'JetBrains Mono',monospace" font-size="8" fill="#374349">P5</text>
</svg>
