<?xml version="1.0" encoding="UTF-8"?>
<svg xmlns="http://www.w3.org/2000/svg" viewBox="0 0 200 340" 
     width="200" height="340"
     role="img" aria-label="Hole 16 — Par 5, 523 yards">
  <rect width="200" height="340" fill="#0a1a0a"/>
  <polygon points="82.0,27.2 118.0,27.2 114.0,149.6 86.0,149.6" fill="#1a3320" opacity="0.95"/>
  <polygon points="86.0,129.6 116.0,131.6 142.0,197.20000000000002 120.0,190.4" fill="#1a3320" opacity="0.95"/>
  <polygon points="92.0,170.0 140.0,166.6 144.0,217.6 96.0,210.8" fill="#1a3320" opacity="0.95"/>
  <rect x="164.0" y="166.6" width="32.0" height="118.99999999999999" rx="5" fill="#0a1e30" opacity="0.9"/>
  <ellipse cx="130.0" cy="285.59999999999997" rx="22" ry="16" fill="#1a5c30" transform="rotate(0,130.0,285.59999999999997)"/>
  <line x1="130.0" y1="277.59999999999997" x2="130.0" y2="265.59999999999997" stroke="#e8ecef" stroke-width="1.2"/>
  <polygon points="130.0,265.59999999999997 139.0,270.59999999999997 130.0,275.59999999999997" fill="#22c55e"/>
  <ellipse cx="102.0" cy="280.59999999999997" rx="9" ry="6" fill="#7a6445" opacity="0.85"/>
  <circle cx="100.0" cy="17.0" r="4" fill="#f5b418"/>
  <text x="6" y="326" font-family="'JetBrains Mono',monospace" font-size="8" fill="#374349">523y</text>
  <text x="6" y="335" font-family="'JetBrains Mono',monospace" font-size="8" fill="#374349">P5</text>
</svg>
